<svg width="24px" height="24px" viewBox="0 0 96 96" fill="none" xmlns="http://www.w3.org/2000/svg"><path fill-rule="evenodd" clip-rule="evenodd" d="M88 31.4434L83.4899 23.6364L75.4219 27.5343L70.9097 19.7272L62.8431 23.6247L58.3309 15.818L50.2643 19.7163L45.752 11.9088L37.6841 15.8064L33.1732 8L25.1063 11.8979L8 68.4256L28.7501 74.8736C30.1357 70.3122 34.3165 66.9967 39.2597 66.9967C45.3329 66.9967 50.2566 72.0018 50.2566 78.1749C50.2566 78.2493 50.2525 78.3236 50.2507 78.398C50.3017 79.4089 50.1866 80.4343 49.8836 81.4414L70.9877 88L88 31.4434Z" fill="#DDDDDD"></path><path fill-rule="evenodd" clip-rule="evenodd" d="M25.7961 63.7582C24.71 63.564 23.9476 62.6317 23.949 61.4904L23.9476 33.8213C23.9504 32.5316 24.9443 31.52 26.2131 31.5186H45.8865C46.3971 31.5186 46.9088 31.5655 47.4101 31.655C51.639 32.4125 54.7102 36.129 54.7088 40.4874L54.7102 61.4904C54.7102 62.114 54.4679 62.6983 54.029 63.1335C53.5998 63.5602 53.0378 63.7952 52.4447 63.7948C52.3012 63.7966 52.1618 63.7822 52.0263 63.7582C50.9388 63.564 50.1792 62.6317 50.1806 61.4904V40.4888C50.1806 38.3651 48.6841 36.5592 46.6245 36.1889C46.3836 36.1462 46.1371 36.1233 45.8865 36.1233L41.5951 36.124V61.4911C41.5951 62.1148 41.3527 62.6983 40.9153 63.1335C40.4847 63.5612 39.9227 63.7952 39.3296 63.7934C39.1861 63.7952 39.0467 63.7829 38.9112 63.7589C37.8223 63.564 37.0641 62.6317 37.0641 61.4904V36.1226L28.4786 36.1233V61.4911C28.48 62.1133 28.2376 62.6976 27.8001 63.132C27.3696 63.5612 26.8076 63.7952 26.2145 63.7948C26.071 63.7952 25.9316 63.7822 25.7961 63.7582Z" fill="#EEEEEE"></path><path fill-rule="evenodd" clip-rule="evenodd" d="M58.5002 75.8149C57.4127 75.6194 56.6532 74.6884 56.6532 73.5467C56.6532 72.9202 56.8848 72.336 57.3046 71.9086C57.7258 71.4797 58.2999 71.2451 58.9187 71.2451C60.8239 71.2451 62.4748 69.9913 63.0246 68.1301L65.3618 60.2156L57.7147 34.2425C57.3396 33.0236 58.0142 31.7192 59.222 31.3347C59.5631 31.2459 59.8925 31.234 60.2187 31.2925C61.0597 31.4433 61.7502 32.0441 62.0196 32.8584L67.7074 52.2316L73.453 32.8672C73.7373 31.7759 74.8896 31.0807 76.0731 31.2925L76.2357 31.3291C77.4588 31.7181 78.1344 33.0251 77.7607 34.245L69.8914 60.9034L67.4013 69.4339C66.7592 71.3917 65.6558 72.9872 64.2081 74.0573C62.6481 75.2307 60.8174 75.8516 58.9173 75.8502C58.7724 75.8516 58.6358 75.8382 58.5002 75.8149Z" fill="#EEEEEE"></path></svg>